<?xml version="1.0" standalone="no"?>
<!DOCTYPE svg PUBLIC "-//W3C//DTD SVG 20010904//EN"
 "http://www.w3.org/TR/2001/REC-SVG-20010904/DTD/svg10.dtd">
<svg version="1.0" xmlns="http://www.w3.org/2000/svg"
 width="260.000000pt" height="260.000000pt" viewBox="0 0 260.000000 260.000000"
 preserveAspectRatio="xMidYMid meet">
<metadata>
Created by potrace 1.14, written by Peter Selinger 2001-2017
</metadata>
<g transform="translate(0.000000,260.000000) scale(0.100000,-0.100000)"
fill="#000000" stroke="none">
<path d="M936 2589 c2 -4 -5 -10 -15 -14 -15 -4 -22 -18 -26 -53 -3 -26 -10
-55 -16 -65 -13 -24 -15 -197 -2 -205 6 -4 13 -29 17 -56 5 -30 11 -44 15 -37
8 12 11 2 27 -68 1 -8 6 -17 11 -20 10 -7 47 -62 49 -73 1 -5 2 -14 3 -20 1
-9 4 -8 11 2 5 8 10 10 10 4 0 -6 18 -31 40 -54 22 -23 40 -46 40 -51 0 -5 6
-9 14 -9 8 0 22 -8 32 -17 9 -10 23 -18 31 -19 8 -2 22 -9 31 -17 10 -9 31
-19 47 -23 17 -4 32 -11 35 -15 3 -4 23 -9 44 -11 20 -1 39 -6 42 -10 3 -4 15
-3 28 2 12 4 28 5 35 1 7 -5 29 -5 50 -1 20 4 46 3 57 0 10 -4 22 -6 27 -3 4
2 7 -3 7 -11 0 -9 6 -15 13 -13 9 1 12 -22 13 -90 1 -51 -1 -93 -5 -94 -33 -4
-61 -4 -61 1 0 3 -13 5 -30 4 -16 -1 -28 2 -25 6 7 11 -75 18 -179 14 -54 -2
-92 -8 -97 -15 -4 -7 -20 -13 -36 -14 -69 -5 -69 -5 -53 -15 12 -8 10 -10 -10
-10 -14 0 -42 -9 -63 -20 -20 -11 -37 -17 -37 -14 0 4 -6 2 -12 -4 -7 -6 -17
-12 -23 -14 -5 -1 -9 -6 -8 -10 2 -5 -6 -8 -16 -8 -11 0 -23 -5 -26 -10 -4 -6
-11 -8 -16 -5 -5 3 -6 0 -4 -7 4 -9 -2 -14 -15 -15 -11 -1 -27 -9 -36 -17 -8
-9 -22 -16 -30 -16 -8 0 -12 -4 -9 -10 3 -5 2 -10 -4 -10 -6 0 -21 -11 -34
-24 -14 -14 -27 -22 -30 -20 -3 3 -8 -4 -12 -15 -3 -12 -13 -21 -21 -21 -8 0
-14 -7 -14 -16 0 -8 -5 -12 -11 -9 -6 4 -13 -2 -16 -14 -3 -11 -9 -19 -13 -16
-5 3 -11 -4 -15 -15 -3 -11 -10 -20 -14 -20 -5 0 -14 -14 -21 -30 -7 -17 -16
-30 -20 -30 -5 0 -12 -15 -15 -32 -4 -18 -13 -36 -19 -40 -7 -5 -7 -8 3 -8 9
0 10 -4 3 -12 -12 -16 -22 -61 -24 -115 -1 -23 -4 -40 -8 -38 -15 9 -16 -250
-2 -269 5 -6 12 -36 16 -66 4 -30 13 -58 19 -62 7 -4 12 -13 13 -20 0 -7 2
-23 2 -36 1 -13 6 -21 11 -17 6 3 13 -10 17 -30 3 -19 10 -35 15 -35 5 0 5 -7
2 -17 -4 -10 -2 -14 4 -10 7 5 14 -5 18 -24 5 -23 9 -28 16 -18 7 11 9 9 9 -6
0 -18 58 -85 74 -85 4 0 17 -11 29 -26 12 -14 30 -26 40 -28 10 -1 22 -7 25
-13 9 -12 60 -27 87 -24 15 1 17 0 6 -7 -13 -10 3 -13 131 -28 32 -3 56 -10
53 -13 -2 -4 1 -8 8 -8 13 -1 155 -14 172 -17 6 0 13 -4 16 -9 8 -10 431 -9
438 1 3 5 13 9 21 9 8 0 38 4 65 8 28 4 58 8 67 9 9 0 14 4 12 8 -3 4 18 10
46 14 28 4 57 13 65 20 7 8 20 14 28 14 8 0 25 8 38 19 13 10 31 21 39 24 10
3 11 6 2 6 -14 1 22 45 39 47 5 1 14 2 20 3 5 0 8 5 5 10 -5 8 40 24 59 22 10
-1 85 76 85 87 0 7 7 12 16 12 8 0 13 4 10 8 -3 5 3 18 13 29 33 35 48 68 53
120 1 13 5 23 9 23 3 0 4 12 2 27 -4 22 -2 25 6 13 6 -8 11 -10 11 -4 0 5 -6
16 -12 23 -10 11 -10 13 0 7 17 -10 17 75 0 93 -11 11 -10 12 2 6 13 -7 13 -6
2 7 -7 9 -12 29 -12 44 0 52 -12 119 -24 126 -7 5 -6 8 4 8 10 0 11 3 3 8 -6
4 -13 21 -16 37 -7 41 -17 65 -28 65 -5 0 -8 3 -8 7 3 21 -2 44 -9 39 -5 -3
-14 11 -21 31 -14 38 -24 53 -53 81 -10 9 -18 22 -18 29 0 7 -3 12 -7 11 -5
-2 -9 2 -11 7 -2 6 -13 15 -25 22 -12 6 -21 14 -19 17 5 13 1 27 -6 22 -5 -3
-15 6 -22 19 -7 14 -22 27 -32 31 -10 3 -16 10 -13 15 6 8 -16 13 -31 7 -3 -2
-12 8 -19 22 -8 14 -14 21 -15 16 0 -4 -15 3 -34 18 -19 14 -39 26 -45 26 -6
0 -11 4 -11 9 0 10 -38 24 -59 21 -7 -1 -10 4 -6 9 4 7 -6 14 -25 17 -17 4
-28 9 -25 12 6 7 -63 32 -88 32 -10 0 -16 4 -13 9 3 5 -10 12 -29 15 -23 5
-35 13 -35 24 -5 186 -5 195 9 200 8 3 19 -2 26 -11 8 -11 28 -17 56 -18 81
-2 110 1 104 11 -3 6 3 11 14 11 12 1 26 3 31 4 6 1 20 3 33 4 21 2 21 3 2 11
-17 6 -14 8 15 11 21 3 34 9 33 17 -2 6 6 12 17 12 26 0 71 21 65 30 -3 5 7
11 20 14 14 4 23 11 20 16 -3 6 1 10 10 10 9 0 19 9 22 20 3 11 12 20 20 20 8
0 11 5 8 10 -3 6 -1 10 4 10 6 0 11 8 11 18 0 14 2 15 10 2 8 -13 10 -13 10 2
0 9 6 21 14 25 18 10 56 82 56 105 0 10 4 18 9 18 14 0 24 66 26 171 3 119 -2
151 -24 147 -9 -2 -22 3 -29 12 -9 10 -11 10 -6 1 4 -9 3 -12 -4 -7 -6 4 -9
13 -5 21 3 8 0 15 -7 15 -6 0 -8 5 -5 10 3 6 1 10 -5 10 -7 0 -9 7 -6 16 3 8
2 12 -4 9 -6 -3 -10 -1 -10 4 0 18 -58 13 -69 -6 -6 -10 -11 -14 -11 -9 0 5
-6 4 -12 -2 -13 -10 -18 -12 -39 -12 -5 0 -8 -4 -4 -9 3 -6 -11 -13 -31 -17
-20 -4 -31 -10 -25 -14 7 -4 -5 -12 -28 -20 -22 -7 -38 -16 -36 -21 3 -4 -4
-10 -15 -14 -11 -3 -20 -11 -20 -16 0 -5 -7 -9 -15 -9 -8 0 -15 -5 -15 -11 0
-5 -5 -7 -12 -3 -7 4 -8 3 -4 -5 4 -6 0 -14 -9 -17 -20 -8 -177 -165 -171
-171 2 -3 -4 -13 -15 -24 -10 -10 -19 -27 -19 -36 0 -15 -2 -16 -10 -3 -7 11
-10 5 -10 -22 0 -44 -16 -50 -31 -11 -6 16 -18 36 -26 45 -9 10 -12 18 -7 18
5 0 2 6 -7 13 -9 7 -21 28 -28 49 -7 20 -18 39 -26 42 -8 3 -15 12 -15 21 0 8
-3 14 -7 13 -11 -4 -53 39 -53 54 0 6 -3 9 -6 6 -3 -3 -27 16 -54 42 -27 26
-51 45 -54 42 -3 -3 -6 -1 -6 5 0 6 -11 14 -25 17 -14 4 -23 11 -20 15 3 5 -8
12 -25 16 -17 4 -28 11 -24 16 3 5 -1 9 -9 9 -8 0 -20 7 -27 15 -6 8 -15 14
-18 14 -16 -2 -51 14 -47 21 3 4 -10 11 -29 14 -19 4 -37 13 -40 22 -3 8 -10
13 -15 9 -5 -3 -12 -1 -15 4 -4 5 -14 8 -24 6 -9 -1 -28 4 -41 12 -13 8 -20
10 -17 4 4 -6 0 -11 -9 -11 -9 0 -14 4 -11 8 3 5 -1 9 -9 9 -8 0 -12 -4 -9 -8z"/>
<path d="M199 1501 c11 -7 9 -10 -10 -13 -21 -3 -24 -8 -22 -45 0 -24 8 -50
17 -58 9 -9 16 -21 16 -26 0 -5 7 -9 15 -9 9 0 12 -6 9 -15 -4 -10 0 -15 10
-15 9 0 19 -7 23 -16 3 -8 11 -13 19 -10 7 3 14 1 16 -5 2 -5 17 -7 35 -3 18
4 30 10 27 15 -2 5 4 14 16 21 11 7 20 18 20 25 0 7 6 13 14 13 8 0 14 6 13
13 -1 36 4 52 12 39 5 -9 10 -1 14 25 5 28 3 41 -8 49 -8 6 -11 15 -7 19 4 5
-6 -1 -23 -12 -16 -12 -34 -22 -40 -24 -5 -2 -9 -7 -7 -11 1 -5 -4 -8 -12 -8
-11 0 -29 -32 -28 -50 0 -3 -8 -6 -18 -7 -11 -1 -17 3 -14 11 3 7 -3 22 -13
34 -10 12 -27 33 -38 47 -11 14 -27 25 -35 25 -13 0 -13 -2 -1 -9z"/>
</g>
</svg>
